<svg width="100%" height="100%" viewBox="0 0 1920 1080" xmlns="http://www.w3.org/2000/svg" preserveAspectRatio="xMidYMid slice">
  <rect width="100%" height="100%" fill="#2E3440" />

  <g transform="translate(713, 217)">
    <g transform="translate(0,646) scale(0.1,-0.1)" fill="#4C566A" stroke="none">
      <path d="M1257 5768 l-1257 -681 0 -1841 0 -1841 1212 -695 c667 -382 1222 -695 1233 -695 11 0 577 313 1258 695 l1237 694 0 1842 0 1842 -1199 681 c-660 374 -1205 681 -1213 680 -7 0 -579 -307 -1271 -681z m2390 -130 l1113 -633 0 -1750 -1 -1750 -1150 -645 c-633 -355 -1156 -645 -1163 -645 -6 0 -519 290 -1138 645 l-1128 645 3 1749 2 1749 1170 633 c644 349 1172 634 1174 634 2 0 505 -285 1118 -632z"/>
      <path d="M710 4508 l0 -84 525 -318 525 -319 0 -531 1 -531 284 -190 c156 -104 281 -193 277 -197 -5 -5 -677 -425 -982 -613 -3 -2 -104 54 -225 125 l-220 128 -5 901 -5 901 -85 49 -85 48 -3 -996 c-2 -922 -1 -997 15 -1008 9 -7 405 -238 880 -514 l863 -501 878 509 877 508 3 1002 2 1002 -85 -51 -85 -51 0 -896 0 -896 -219 -127 c-120 -70 -223 -129 -228 -130 -6 -2 -233 136 -507 306 l-496 308 287 194 288 194 5 532 5 532 515 313 515 313 3 86 c2 67 0 85 -10 82 -7 -3 -282 -95 -610 -204 l-598 -199 0 -680 0 -680 -265 -178 c-146 -98 -271 -177 -279 -175 -7 2 -130 82 -274 178 l-261 175 -1 680 0 680 -597 199 c-329 109 -604 201 -610 204 -10 3 -13 -17 -13 -80z m2243 -2588 c261 -162 472 -298 469 -302 -12 -12 -926 -540 -943 -545 -19 -5 -961 537 -956 550 3 10 939 596 949 593 3 0 220 -134 481 -296z"/>
    </g>
  </g>
</svg>
